<svg xmlns="http://www.w3.org/2000/svg" width="900" height="520" viewBox="0 0 900 520">
<rect width="100%" height="100%" fill="white"/>
<text x="450.0" y="30" text-anchor="middle" font-size="20" font-family="Arial">Accuracy Curve: ablate_mha</text>
<line x1="70" y1="455" x2="870" y2="455" stroke="#444"/>
<line x1="70" y1="55" x2="70" y2="455" stroke="#444"/>
<text x="450.0" y="502" text-anchor="middle" font-size="13" font-family="Arial">epoch</text>
<text x="20" y="260.0" transform="rotate(-90 20 260.0)" text-anchor="middle" font-size="13" font-family="Arial">accuracy (%)</text>
<polyline fill="none" stroke="#4C78A8" stroke-width="2.5" points="70.0,441.9 78.1,432.0 86.2,423.9 94.2,416.3 102.3,407.0 110.4,400.3 118.5,382.4 126.6,380.0 134.6,379.5 142.7,373.8 150.8,362.1 158.9,364.1 167.0,350.6 175.1,346.8 183.1,345.8 191.2,344.6 199.3,336.4 207.4,340.6 215.5,339.6 223.5,331.4 231.6,328.1 239.7,328.1 247.8,329.4 255.9,320.6 263.9,324.0 272.0,316.8 280.1,328.1 288.2,321.0 296.3,307.0 304.3,300.1 312.4,313.9 320.5,316.4 328.6,306.7 336.7,310.9 344.7,295.2 352.8,292.6 360.9,298.3 369.0,296.2 377.1,299.2 385.2,296.3 393.2,295.5 401.3,293.8 409.4,286.7 417.5,283.0 425.6,291.9 433.6,288.2 441.7,286.4 449.8,292.7 457.9,290.3 466.0,277.5 474.0,282.4 482.1,271.2 490.2,279.3 498.3,278.3 506.4,264.6 514.4,274.6 522.5,279.9 530.6,282.7 538.7,285.6 546.8,272.8 554.8,254.1 562.9,271.6 571.0,259.2 579.1,277.3 587.2,266.8 595.3,262.2 603.3,266.0 611.4,270.4 619.5,271.0 627.6,256.9 635.7,249.9 643.7,264.5 651.8,257.0 659.9,266.5 668.0,245.8 676.1,251.7 684.1,254.7 692.2,268.4 700.3,247.7 708.4,265.5 716.5,247.6 724.5,259.6 732.6,255.1 740.7,259.4 748.8,250.8 756.9,254.8 764.9,251.0 773.0,247.0 781.1,273.5 789.2,258.7 797.3,241.5 805.4,239.8 813.4,246.1 821.5,250.0 829.6,237.8 837.7,237.5 845.8,250.2 853.8,249.1 861.9,249.1 870.0,239.4"/>
<rect x="90" y="70" width="14" height="14" fill="#4C78A8"/>
<text x="110" y="82" font-size="13" font-family="Arial">train_acc1</text>
<polyline fill="none" stroke="#F58518" stroke-width="2.5" points="70.0,418.1 78.1,400.6 86.2,379.8 94.2,349.9 102.3,330.2 110.4,311.5 118.5,298.5 126.6,284.7 134.6,273.3 142.7,266.1 150.8,252.7 158.9,244.7 167.0,231.3 175.1,227.3 183.1,221.7 191.2,215.8 199.3,205.7 207.4,204.7 215.5,203.6 223.5,196.8 231.6,193.1 239.7,188.5 247.8,190.5 255.9,189.1 263.9,180.8 272.0,183.3 280.1,177.4 288.2,176.2 296.3,177.9 304.3,172.6 312.4,170.6 320.5,170.2 328.6,166.2 336.7,164.5 344.7,165.1 352.8,164.8 360.9,163.7 369.0,159.0 377.1,157.5 385.2,160.5 393.2,153.0 401.3,154.5 409.4,151.0 417.5,150.7 425.6,151.1 433.6,151.0 441.7,150.3 449.8,146.8 457.9,145.3 466.0,145.8 474.0,143.9 482.1,143.9 490.2,143.0 498.3,143.0 506.4,140.9 514.4,138.4 522.5,139.0 530.6,140.0 538.7,137.8 546.8,138.0 554.8,137.1 562.9,137.0 571.0,134.0 579.1,133.8 587.2,135.5 595.3,133.2 603.3,134.1 611.4,131.9 619.5,131.8 627.6,131.6 635.7,130.4 643.7,131.7 651.8,129.3 659.9,131.3 668.0,130.0 676.1,129.0 684.1,129.2 692.2,128.9 700.3,127.9 708.4,127.6 716.5,127.3 724.5,128.6 732.6,127.7 740.7,126.3 748.8,126.4 756.9,127.2 764.9,127.8 773.0,126.2 781.1,125.7 789.2,124.6 797.3,124.8 805.4,124.7 813.4,124.3 821.5,125.0 829.6,124.5 837.7,124.1 845.8,124.4 853.8,124.4 861.9,124.4 870.0,124.0"/>
<rect x="90" y="92" width="14" height="14" fill="#F58518"/>
<text x="110" y="104" font-size="13" font-family="Arial">val_acc1</text>
</svg>